I had a major fight with my encoding software, so sorry about quality inconsistencies. Actually, it's more the display aspect ratio that is a little off. After spending all night encoding though, I'm done! -until the next one that is. ;o)

Enjoy!



Format                           : AVI
Format/Info                      : Audio Video Interleave
File size                        : 377 MiB
Duration                         : 45mn 12s
Overall bit rate                 : 1 166 Kbps

Video
Format                           : xvid
Codec ID                         : xvid
Duration                         : 45mn 12s
Bit rate                         : 1 024 Kbps
Width                            : 720 pixels
Height                           : 576 pixels
Display aspect ratio             : 5:4
Frame rate                       : 30.000 fps
Bits/(Pixel*Frame)               : 0.082
Stream size                      : 331 MiB (88%)

Audio
ID                               : 1
Format                           : MPEG Audio
Format version                   : Version 1
Format profile                   : Layer 3
Mode                             : Joint stereo
Format_Settings_ModeExtension    : MS Stereo
Codec ID                         : 55
Codec ID/Hint                    : MP3
Duration                         : 45mn 12s
Bit rate mode                    : Constant
Bit rate                         : 128 Kbps
Channel(s)                       : 2 channels
Sampling rate                    : 48.0 KHz
Stream size                      : 41.4 MiB (11%)
Alignment                        : Aligned on interleaves
Interleave, duration             : 24 ms (0.72 video frame)
Writing library                  : LAME3.97 (beta)

